<svg id="visual" viewBox="0 0 960 540" xmlns="http://www.w3.org/2000/svg" xmlns:xlink="http://www.w3.org/1999/xlink" version="1.1"><rect x="0" y="0" width="960" height="540" fill="#FFFFFF"></rect><path d="M0 334L14.5 337C29 340 58 346 87.2 349.8C116.3 353.7 145.7 355.3 174.8 356.7C204 358 233 359 262 350.2C291 341.3 320 322.7 349 314.5C378 306.3 407 308.7 436.2 308.3C465.3 308 494.7 305 523.8 308.5C553 312 582 322 611 327.2C640 332.3 669 332.7 698 331.5C727 330.3 756 327.7 785.2 330.3C814.3 333 843.7 341 872.8 344.7C902 348.3 931 347.7 945.5 347.3L960 347L960 541L945.5 541C931 541 902 541 872.8 541C843.7 541 814.3 541 785.2 541C756 541 727 541 698 541C669 541 640 541 611 541C582 541 553 541 523.8 541C494.7 541 465.3 541 436.2 541C407 541 378 541 349 541C320 541 291 541 262 541C233 541 204 541 174.8 541C145.7 541 116.3 541 87.2 541C58 541 29 541 14.5 541L0 541Z" fill="#2479e5"></path><path d="M0 319L14.5 324.3C29 329.7 58 340.3 87.2 348C116.3 355.7 145.7 360.3 174.8 362.7C204 365 233 365 262 365.8C291 366.7 320 368.3 349 361.7C378 355 407 340 436.2 336.7C465.3 333.3 494.7 341.7 523.8 343.7C553 345.7 582 341.3 611 335.8C640 330.3 669 323.7 698 327.7C727 331.7 756 346.3 785.2 347.3C814.3 348.3 843.7 335.7 872.8 332.8C902 330 931 337 945.5 340.5L960 344L960 541L945.5 541C931 541 902 541 872.8 541C843.7 541 814.3 541 785.2 541C756 541 727 541 698 541C669 541 640 541 611 541C582 541 553 541 523.8 541C494.7 541 465.3 541 436.2 541C407 541 378 541 349 541C320 541 291 541 262 541C233 541 204 541 174.8 541C145.7 541 116.3 541 87.2 541C58 541 29 541 14.5 541L0 541Z" fill="#3792ec"></path><path d="M0 393L14.5 390.8C29 388.7 58 384.3 87.2 386.8C116.3 389.3 145.7 398.7 174.8 398.5C204 398.3 233 388.7 262 385.3C291 382 320 385 349 390.7C378 396.3 407 404.7 436.2 400.5C465.3 396.3 494.7 379.7 523.8 377.2C553 374.7 582 386.3 611 392.2C640 398 669 398 698 391.2C727 384.3 756 370.7 785.2 373.8C814.3 377 843.7 397 872.8 403.8C902 410.7 931 404.3 945.5 401.2L960 398L960 541L945.5 541C931 541 902 541 872.8 541C843.7 541 814.3 541 785.2 541C756 541 727 541 698 541C669 541 640 541 611 541C582 541 553 541 523.8 541C494.7 541 465.3 541 436.2 541C407 541 378 541 349 541C320 541 291 541 262 541C233 541 204 541 174.8 541C145.7 541 116.3 541 87.2 541C58 541 29 541 14.5 541L0 541Z" fill="#58aaf1"></path><path d="M0 436L14.5 437.5C29 439 58 442 87.2 436C116.3 430 145.7 415 174.8 412.2C204 409.3 233 418.7 262 423.7C291 428.7 320 429.3 349 432.5C378 435.7 407 441.3 436.2 436C465.3 430.7 494.7 414.3 523.8 413C553 411.7 582 425.3 611 433C640 440.7 669 442.3 698 439.7C727 437 756 430 785.2 422.5C814.3 415 843.7 407 872.8 404.5C902 402 931 405 945.5 406.5L960 408L960 541L945.5 541C931 541 902 541 872.8 541C843.7 541 814.3 541 785.2 541C756 541 727 541 698 541C669 541 640 541 611 541C582 541 553 541 523.8 541C494.7 541 465.3 541 436.2 541C407 541 378 541 349 541C320 541 291 541 262 541C233 541 204 541 174.8 541C145.7 541 116.3 541 87.2 541C58 541 29 541 14.5 541L0 541Z" fill="#7dc1f3"></path><path d="M0 466L14.5 465.2C29 464.3 58 462.7 87.2 463.5C116.3 464.3 145.7 467.7 174.8 469C204 470.3 233 469.7 262 468.3C291 467 320 465 349 459.7C378 454.3 407 445.7 436.2 447.3C465.3 449 494.7 461 523.8 464.3C553 467.7 582 462.3 611 459C640 455.7 669 454.3 698 453.8C727 453.3 756 453.7 785.2 452C814.3 450.3 843.7 446.7 872.8 446.7C902 446.7 931 450.3 945.5 452.2L960 454L960 541L945.5 541C931 541 902 541 872.8 541C843.7 541 814.3 541 785.2 541C756 541 727 541 698 541C669 541 640 541 611 541C582 541 553 541 523.8 541C494.7 541 465.3 541 436.2 541C407 541 378 541 349 541C320 541 291 541 262 541C233 541 204 541 174.8 541C145.7 541 116.3 541 87.2 541C58 541 29 541 14.5 541L0 541Z" fill="#a4d7f5"></path><path d="M0 492L14.5 493.8C29 495.7 58 499.3 87.2 500.8C116.3 502.3 145.7 501.7 174.8 500.2C204 498.7 233 496.3 262 496.7C291 497 320 500 349 499.7C378 499.3 407 495.7 436.2 491C465.3 486.3 494.7 480.7 523.8 481.3C553 482 582 489 611 495C640 501 669 506 698 503.2C727 500.3 756 489.7 785.2 486.3C814.3 483 843.7 487 872.8 489.5C902 492 931 493 945.5 493.5L960 494L960 541L945.5 541C931 541 902 541 872.8 541C843.7 541 814.3 541 785.2 541C756 541 727 541 698 541C669 541 640 541 611 541C582 541 553 541 523.8 541C494.7 541 465.3 541 436.2 541C407 541 378 541 349 541C320 541 291 541 262 541C233 541 204 541 174.8 541C145.7 541 116.3 541 87.2 541C58 541 29 541 14.5 541L0 541Z" fill="#ceebf9"></path></svg>