<svg id="visual" viewBox="0 0 900 900" xmlns="http://www.w3.org/2000/svg" xmlns:xlink="http://www.w3.org/1999/xlink" version="1.1"><rect x="0" y="0" width="900" height="900" fill="#FFF"></rect><path d="M0 278L30 307.7C60 337.3 120 396.7 180 376C240 355.3 300 254.7 360 298.8C420 343 480 532 540 597.2C600 662.3 660 603.7 720 529C780 454.3 840 363.7 870 318.3L900 273L900 901L870 901C840 901 780 901 720 901C660 901 600 901 540 901C480 901 420 901 360 901C300 901 240 901 180 901C120 901 60 901 30 901L0 901Z" fill="#0066FF" stroke-linecap="round" stroke-linejoin="miter"></path></svg>